# xmcd
#
# Track frame offsets:
#	150
#	16471
#	36042
#	56620
#	77576
#	98434
#	115803
#	134776
#	150858
#	167124
#
# Disc length: 2494
#
# Revision: 2
# Processed by: cddbd v1.5.1PL0 Copyright (c) Steve Scherf et al.
# Submitted via: jetAudio 5
# Normalized: r1:TRMNUM
#
DISCID=7109bc0a
DTITLE=蔡依林 - 城堡
DYEAR=1900
DGENRE=
TTITLE0=愛情三十六計
TTITLE1=就是愛
TTITLE2=檸檬草的味道
TTITLE3=海盜
TTITLE4=始作俑者
TTITLE5=LOVE LOVE LOVE
TTITLE6=消失的城堡
TTITLE7=乖貓
TTITLE8=第一優先
TTITLE9=到帶
EXTD=
EXTT0=蔡依林
EXTT1=蔡依林
EXTT2=蔡依林
EXTT3=蔡依林
EXTT4=蔡依林
EXTT5=蔡依林
EXTT6=蔡依林
EXTT7=蔡依林
EXTT8=蔡依林
EXTT9=蔡依林
PLAYORDER=
